# Blender v2.69 (sub 0) OBJ File: 'selected.blend'
# www.blender.org
mtllib selected.mtl
o Cone
v 0.000000 0.999999 1.000001
v 0.000000 -1.000000 -0.000001
v 0.195090 0.999999 0.980787
v 0.382683 0.999999 0.923881
v 0.555570 0.999999 0.831471
v 0.707107 0.999999 0.707108
v 0.831470 0.999999 0.555571
v 0.923880 1.000000 0.382685
v 0.980785 1.000000 0.195092
v 1.000000 1.000000 0.000001
v 0.980785 1.000000 -0.195089
v 0.923880 1.000000 -0.382682
v 0.831470 1.000001 -0.555569
v 0.707107 1.000001 -0.707106
v 0.555570 1.000001 -0.831468
v 0.382683 1.000001 -0.923878
v 0.195090 1.000001 -0.980784
v -0.000000 1.000001 -0.999999
v -0.195091 1.000001 -0.980784
v -0.382684 1.000001 -0.923878
v -0.555571 1.000001 -0.831468
v -0.707107 1.000001 -0.707105
v -0.831470 1.000001 -0.555568
v -0.923880 1.000000 -0.382681
v -0.980785 1.000000 -0.195088
v -1.000000 1.000000 0.000002
v -0.980785 1.000000 0.195093
v -0.923879 1.000000 0.382686
v -0.831469 0.999999 0.555573
v -0.707106 0.999999 0.707109
v -0.555569 0.999999 0.831472
v -0.382682 0.999999 0.923881
v -0.195089 0.999999 0.980787
v 0.136938 0.764386 0.179060
v 0.136938 0.764386 -0.179060
v -0.136938 0.764386 -0.179060
v -0.136938 0.764386 0.179060
v 0.136938 2.764386 0.179060
v 0.136938 2.764386 -0.179060
v -0.136938 2.764386 -0.179060
v -0.136938 2.764386 0.179060
vt 0.270318 0.599579
vt 0.299839 0.299839
vt 0.329361 0.599579
vt 0.387270 0.588060
vt 0.441819 0.565465
vt 0.212409 0.588060
vt 0.157859 0.565465
vt 0.108766 0.532662
vt 0.067016 0.490912
vt 0.034214 0.441819
vt 0.011619 0.387269
vt 0.000100 0.329360
vt 0.000100 0.270317
vt 0.011619 0.212408
vt 0.034214 0.157859
vt 0.067017 0.108767
vt 0.108767 0.067016
vt 0.157860 0.034214
vt 0.212409 0.011619
vt 0.270318 0.000100
vt 0.329361 0.000100
vt 0.387270 0.011619
vt 0.441819 0.034214
vt 0.490912 0.067016
vt 0.532662 0.108766
vt 0.565465 0.157859
vt 0.588060 0.212408
vt 0.599579 0.270317
vt 0.599579 0.329361
vt 0.588060 0.387270
vt 0.565465 0.441819
vt 0.532662 0.490912
vt 0.490912 0.532662
vt 0.180457 0.599779
vt 0.219865 0.599779
vt 0.141805 0.607467
vt 0.000000 0.000000
vt 1.000000 0.000000
vt 0.000000 1.000000
vt 0.258516 0.607467
vt 0.294925 0.622548
vt 0.327692 0.644442
vt 0.355558 0.672308
vt 0.377453 0.705075
vt 0.392534 0.741484
vt 0.400222 0.780135
vt 0.400222 0.819544
vt 0.392534 0.858195
vt 0.377453 0.894604
vt 0.355558 0.927371
vt 0.007789 0.741483
vt 0.000100 0.819542
vt 0.000100 0.780133
vt 0.022869 0.705075
vt 0.327692 0.955237
vt 0.294926 0.977131
vt 0.180456 0.999900
vt 0.258517 0.992212
vt 0.219865 0.999900
vt 0.072629 0.955236
vt 0.141804 0.992211
vt 0.105396 0.977130
vt 0.105396 0.622548
vt 0.007788 0.858193
vt 0.022869 0.894602
vt 0.044764 0.672308
vt 0.044763 0.927369
vt 0.072630 0.644442
vt 1.000000 1.000000
vn -0.259887 -0.445489 0.856737
vn 0.087754 -0.445489 0.890976
vn -0.422035 -0.445489 0.789573
vn -0.567964 -0.445489 0.692067
vn -0.692066 -0.445489 0.567965
vn -0.789573 -0.445489 0.422036
vn -0.856737 -0.445489 0.259889
vn -0.890977 -0.445488 0.087754
vn -0.890977 -0.445488 -0.087753
vn -0.856737 -0.445488 -0.259888
vn -0.789574 -0.445488 -0.422036
vn -0.692067 -0.445488 -0.567965
vn -0.567965 -0.445487 -0.692067
vn -0.422036 -0.445487 -0.789574
vn -0.259889 -0.445487 -0.856737
vn -0.087754 -0.445487 -0.890977
vn 0.087753 -0.445487 -0.890977
vn 0.259888 -0.445487 -0.856738
vn 0.422036 -0.445487 -0.789574
vn 0.567964 -0.445488 -0.692067
vn 0.692067 -0.445488 -0.567965
vn 0.789573 -0.445488 -0.422036
vn 0.856737 -0.445488 -0.259889
vn 0.890977 -0.445488 -0.087754
vn 0.890977 -0.445488 0.087753
vn 0.856737 -0.445489 0.259888
vn 0.789573 -0.445489 0.422035
vn 0.692067 -0.445489 0.567964
vn 0.567965 -0.445489 0.692066
vn 0.422036 -0.445489 0.789573
vn -0.087753 -0.445489 0.890976
vn 0.259888 -0.445489 0.856736
vn 0.000000 1.000000 0.000000
vn -1.000000 0.000000 0.000000
vn 0.000000 0.000000 1.000000
vn 1.000000 -0.000000 0.000000
vn 0.000000 -0.000000 -1.000000
vn 0.000000 -1.000000 0.000000
vn 0.000000 1.000000 -0.000005
vn 0.000000 1.000000 0.000003
vn -0.000000 1.000000 0.000002
vn -0.000000 1.000000 0.000001
vn 0.000001 1.000000 0.000000
vn 0.000000 1.000000 -0.000004
vn 0.000000 1.000000 0.000004
vn -0.000001 1.000000 0.000000
vn -0.000001 1.000000 -0.000003
usemtl Material.001
s off
f 32/1/1 2/2/1 33/3/1
f 1/4/2 2/2/2 3/5/2
f 31/6/3 2/2/3 32/1/3
f 30/7/4 2/2/4 31/6/4
f 29/8/5 2/2/5 30/7/5
f 28/9/6 2/2/6 29/8/6
f 27/10/7 2/2/7 28/9/7
f 26/11/8 2/2/8 27/10/8
f 25/12/9 2/2/9 26/11/9
f 24/13/10 2/2/10 25/12/10
f 23/14/11 2/2/11 24/13/11
f 22/15/12 2/2/12 23/14/12
f 21/16/13 2/2/13 22/15/13
f 20/17/14 2/2/14 21/16/14
f 19/18/15 2/2/15 20/17/15
f 18/19/16 2/2/16 19/18/16
f 17/20/17 2/2/17 18/19/17
f 16/21/18 2/2/18 17/20/18
f 15/22/19 2/2/19 16/21/19
f 14/23/20 2/2/20 15/22/20
f 13/24/21 2/2/21 14/23/21
f 12/25/22 2/2/22 13/24/22
f 11/26/23 2/2/23 12/25/23
f 10/27/24 2/2/24 11/26/24
f 9/28/25 2/2/25 10/27/25
f 8/29/26 2/2/26 9/28/26
f 7/30/27 2/2/27 8/29/27
f 6/31/28 2/2/28 7/30/28
f 5/32/29 2/2/29 6/31/29
f 4/33/30 2/2/30 5/32/30
f 33/3/31 2/2/31 1/4/31
f 3/5/32 2/2/32 4/33/32
f 1/34/33 3/35/33 33/36/33
f 38/37/34 39/38/34 34/39/34
f 39/37/35 40/38/35 35/39/35
f 40/37/36 41/38/36 36/39/36
f 41/37/37 38/38/37 37/39/37
f 34/37/33 35/38/33 37/39/33
f 41/37/38 40/38/38 38/39/38
f 3/35/39 4/40/39 33/36/39
f 4/40/33 5/41/33 33/36/33
f 5/41/40 6/42/40 33/36/40
f 6/42/41 7/43/41 33/36/41
f 7/43/33 8/44/33 33/36/33
f 8/44/42 9/45/42 33/36/42
f 9/45/42 10/46/42 33/36/42
f 10/46/42 11/47/42 33/36/42
f 11/47/41 12/48/41 33/36/41
f 12/48/42 13/49/42 33/36/42
f 13/49/42 14/50/42 33/36/42
f 28/51/42 26/52/42 27/53/42
f 29/54/42 26/52/42 28/51/42
f 14/50/43 15/55/43 16/56/43
f 33/36/42 14/50/42 16/56/42
f 19/57/44 17/58/44 18/59/44
f 19/57/45 16/56/45 17/58/45
f 33/36/42 16/56/42 19/57/42
f 22/60/46 20/61/46 21/62/46
f 22/60/47 19/57/47 20/61/47
f 33/36/42 19/57/42 22/60/42
f 32/63/42 33/36/42 22/60/42
f 29/54/42 25/64/42 26/52/42
f 29/54/42 24/65/42 25/64/42
f 30/66/42 24/65/42 29/54/42
f 30/66/42 23/67/42 24/65/42
f 31/68/42 32/63/42 22/60/42
f 30/66/42 31/68/42 23/67/42
f 31/68/42 22/60/42 23/67/42
f 39/38/34 35/69/34 34/39/34
f 40/38/35 36/69/35 35/39/35
f 41/38/36 37/69/36 36/39/36
f 38/38/37 34/69/37 37/39/37
f 35/38/33 36/69/33 37/39/33
f 40/38/38 39/69/38 38/39/38
